# Blender v2.79 (sub 0) OBJ File: 'cursor.blend'
# www.blender.org
mtllib cursor.mtl
o Cube.001
v -1.000000 1.000000 1.000000
v -1.000000 1.100000 1.000000
v -1.000000 1.000000 0.600000
v -1.000000 1.100000 0.600000
v -0.800000 1.000000 1.000000
v -0.800000 1.100000 1.000000
v -0.800000 1.000000 0.600000
v -0.800000 1.100000 0.600000
v 0.800000 1.000000 1.000000
v 0.800000 1.100000 1.000000
v 0.800000 1.000000 0.600000
v 0.800000 1.100000 0.600000
v 1.000000 1.000000 1.000000
v 1.000000 1.100000 1.000000
v 1.000000 1.000000 0.600000
v 1.000000 1.100000 0.600000
v 0.800000 1.100000 1.000000
v 0.800000 1.000000 1.000000
v 0.600000 1.100000 1.000000
v 0.600000 1.000000 1.000000
v 0.800000 1.100000 0.800000
v 0.800000 1.000000 0.800000
v 0.600000 1.100000 0.800000
v 0.600000 1.000000 0.800000
v -0.800000 1.000000 0.800000
v -0.800000 1.100000 0.800000
v -0.600000 1.000000 0.800000
v -0.600000 1.100000 0.800000
v -0.800000 1.000000 1.000000
v -0.800000 1.100000 1.000000
v -0.600000 1.000000 1.000000
v -0.600000 1.100000 1.000000
v -1.000000 1.000000 -1.000000
v -1.000000 1.100000 -1.000000
v -1.000000 1.000000 -0.600000
v -1.000000 1.100000 -0.600000
v -0.800000 1.000000 -1.000000
v -0.800000 1.100000 -1.000000
v -0.800000 1.000000 -0.600000
v -0.800000 1.100000 -0.600000
v 0.800000 1.000000 -1.000000
v 0.800000 1.100000 -1.000000
v 0.800000 1.000000 -0.600000
v 0.800000 1.100000 -0.600000
v 1.000000 1.000000 -1.000000
v 1.000000 1.100000 -1.000000
v 1.000000 1.000000 -0.600000
v 1.000000 1.100000 -0.600000
v 0.800000 1.100000 -1.000000
v 0.800000 1.000000 -1.000000
v 0.600000 1.100000 -1.000000
v 0.600000 1.000000 -1.000000
v 0.800000 1.100000 -0.800000
v 0.800000 1.000000 -0.800000
v 0.600000 1.100000 -0.800000
v 0.600000 1.000000 -0.800000
v -0.800000 1.000000 -0.800000
v -0.800000 1.100000 -0.800000
v -0.600000 1.000000 -0.800000
v -0.600000 1.100000 -0.800000
v -0.800000 1.000000 -1.000000
v -0.800000 1.100000 -1.000000
v -0.600000 1.000000 -1.000000
v -0.600000 1.100000 -1.000000
vt 0.000000 0.000000
vt 1.000000 0.000000
vt 1.000000 1.000000
vt 0.000000 1.000000
vt 0.000000 0.000000
vt 1.000000 0.000000
vt 1.000000 1.000000
vt 0.000000 1.000000
vt 0.000000 0.000000
vt 1.000000 0.000000
vt 1.000000 1.000000
vt 0.000000 1.000000
vt 0.000000 0.000000
vt 1.000000 0.000000
vt 1.000000 1.000000
vt 0.000000 1.000000
vt 1.000000 0.000000
vt 1.000000 1.000000
vt 0.000000 0.000000
vt 0.000000 1.000000
vt 0.000000 0.000000
vt 1.000000 0.000000
vt 1.000000 1.000000
vt 0.000000 1.000000
vt 0.000000 0.000000
vt 1.000000 0.000000
vt 1.000000 1.000000
vt 0.000000 1.000000
vt 0.000000 0.000000
vt 1.000000 0.000000
vt 1.000000 1.000000
vt 0.000000 1.000000
vt 0.000000 0.000000
vt 1.000000 0.000000
vt 1.000000 1.000000
vt 0.000000 1.000000
vt 1.000000 0.000000
vt 1.000000 1.000000
vt 0.000000 0.000000
vt 0.000000 1.000000
vt 0.000000 0.000000
vt 1.000000 0.000000
vt 1.000000 1.000000
vt 0.000000 1.000000
vt 1.000000 0.000000
vt 1.000000 1.000000
vt 0.000000 1.000000
vt 0.000000 0.000000
vt 1.000000 0.000000
vt 1.000000 1.000000
vt 0.000000 1.000000
vt 0.000000 0.000000
vt 1.000000 0.000000
vt 1.000000 1.000000
vt 0.000000 0.000000
vt 0.000000 1.000000
vt 0.000000 0.000000
vt 1.000000 0.000000
vt 1.000000 1.000000
vt 0.000000 1.000000
vt 0.000000 0.000000
vt 1.000000 0.000000
vt 1.000000 1.000000
vt 0.000000 1.000000
vt 0.000000 0.000000
vt 1.000000 0.000000
vt 1.000000 1.000000
vt 0.000000 1.000000
vt 0.000000 0.000000
vt 1.000000 0.000000
vt 1.000000 1.000000
vt 0.000000 1.000000
vt 0.000000 0.000000
vt 1.000000 0.000000
vt 1.000000 1.000000
vt 0.000000 1.000000
vt 1.000000 0.000000
vt 1.000000 1.000000
vt 0.000000 0.000000
vt 0.000000 1.000000
vt 0.000000 0.000000
vt 1.000000 0.000000
vt 1.000000 1.000000
vt 0.000000 1.000000
vt 0.000000 0.000000
vt 1.000000 0.000000
vt 1.000000 1.000000
vt 0.000000 1.000000
vt 0.000000 0.000000
vt 1.000000 0.000000
vt 1.000000 1.000000
vt 0.000000 1.000000
vt 0.000000 0.000000
vt 1.000000 0.000000
vt 1.000000 1.000000
vt 0.000000 1.000000
vt 1.000000 1.000000
vt 0.000000 1.000000
vt 0.000000 0.000000
vt 1.000000 0.000000
vt 0.000000 0.000000
vt 1.000000 0.000000
vt 1.000000 1.000000
vt 0.000000 1.000000
vt 0.000000 0.000000
vt 1.000000 0.000000
vt 1.000000 1.000000
vt 0.000000 1.000000
vt 0.000000 0.000000
vt 1.000000 0.000000
vt 1.000000 1.000000
vt 0.000000 1.000000
vt 0.000000 0.000000
vt 1.000000 0.000000
vt 1.000000 1.000000
vt 0.000000 1.000000
vt 1.000000 1.000000
vt 0.000000 1.000000
vt 0.000000 0.000000
vt 1.000000 0.000000
vt 0.000000 0.000000
vt 1.000000 0.000000
vt 1.000000 1.000000
vt 0.000000 1.000000
vt 1.000000 0.000000
vt 1.000000 1.000000
vt 0.000000 1.000000
vt 0.000000 0.000000
vt 1.000000 0.000000
vt 1.000000 1.000000
vt 0.000000 1.000000
vt 0.000000 0.000000
vt 1.000000 1.000000
vt 0.000000 1.000000
vt 0.000000 0.000000
vt 1.000000 0.000000
vt 0.000000 0.000000
vt 1.000000 0.000000
vt 1.000000 1.000000
vt 0.000000 1.000000
vt 0.000000 0.000000
vt 1.000000 0.000000
vt 1.000000 1.000000
vt 0.000000 1.000000
vt 0.000000 0.000000
vt 1.000000 0.000000
vt 1.000000 1.000000
vt 0.000000 1.000000
vt 0.000000 0.000000
vt 1.000000 0.000000
vt 1.000000 1.000000
vt 0.000000 1.000000
vt 0.000000 0.000000
vt 1.000000 0.000000
vt 1.000000 1.000000
vt 0.000000 1.000000
vt 1.000000 1.000000
vt 0.000000 1.000000
vt 0.000000 0.000000
vt 1.000000 0.000000
vn -1.0000 0.0000 0.0000
vn 0.0000 0.0000 -1.0000
vn 1.0000 0.0000 0.0000
vn 0.0000 0.0000 1.0000
vn 0.0000 -1.0000 0.0000
vn 0.0000 1.0000 0.0000
usemtl None
s off
f 1/1/1 2/2/1 4/3/1 3/4/1
f 3/5/2 4/6/2 8/7/2 7/8/2
f 7/9/3 8/10/3 6/11/3 5/12/3
f 5/13/4 6/14/4 2/15/4 1/16/4
f 3/5/5 7/17/5 5/18/5 1/16/5
f 8/19/6 4/6/6 2/15/6 6/20/6
f 9/21/1 10/22/1 12/23/1 11/24/1
f 11/25/2 12/26/2 16/27/2 15/28/2
f 15/29/3 16/30/3 14/31/3 13/32/3
f 13/33/4 14/34/4 10/35/4 9/36/4
f 11/25/5 15/37/5 13/38/5 9/36/5
f 16/39/6 12/26/6 10/35/6 14/40/6
f 22/41/5 18/42/5 20/43/5 24/44/5
f 22/41/3 21/45/3 17/46/3 18/47/3
f 24/48/2 23/49/2 21/50/2 22/51/2
f 20/52/1 19/53/1 23/54/1 24/44/1
f 17/55/6 21/45/6 23/54/6 19/56/6
f 18/57/4 17/58/4 19/59/4 20/60/4
f 25/61/2 26/62/2 28/63/2 27/64/2
f 27/65/3 28/66/3 32/67/3 31/68/3
f 31/69/4 32/70/4 30/71/4 29/72/4
f 29/73/1 30/74/1 26/75/1 25/76/1
f 27/65/5 31/77/5 29/78/5 25/76/5
f 32/79/6 28/66/6 26/75/6 30/80/6
f 33/81/1 35/82/1 36/83/1 34/84/1
f 35/85/4 39/86/4 40/87/4 36/88/4
f 39/89/3 37/90/3 38/91/3 40/92/3
f 37/93/2 33/94/2 34/95/2 38/96/2
f 35/85/5 33/94/5 37/97/5 39/98/5
f 40/99/6 38/100/6 34/95/6 36/88/6
f 41/101/1 43/102/1 44/103/1 42/104/1
f 43/105/4 47/106/4 48/107/4 44/108/4
f 47/109/3 45/110/3 46/111/3 48/112/3
f 45/113/2 41/114/2 42/115/2 46/116/2
f 43/105/5 41/114/5 45/117/5 47/118/5
f 48/119/6 46/120/6 42/115/6 44/108/6
f 54/121/5 56/122/5 52/123/5 50/124/5
f 54/121/3 50/125/3 49/126/3 53/127/3
f 56/128/4 54/129/4 53/130/4 55/131/4
f 52/132/1 56/122/1 55/133/1 51/134/1
f 49/135/6 51/136/6 55/133/6 53/127/6
f 50/137/2 52/138/2 51/139/2 49/140/2
f 57/141/4 59/142/4 60/143/4 58/144/4
f 59/145/3 63/146/3 64/147/3 60/148/3
f 63/149/2 61/150/2 62/151/2 64/152/2
f 61/153/1 57/154/1 58/155/1 62/156/1
f 59/145/5 57/154/5 61/157/5 63/158/5
f 64/159/6 62/160/6 58/155/6 60/148/6
