# Blender v2.79 (sub 0) OBJ File: 'fence_block.blend'
# www.blender.org
mtllib fence_block.mtl
o Cube.001
v 1.000000 -1.000000 -1.000000
v 1.000000 -1.000000 1.000000
v -1.000000 -1.000000 1.000000
v -1.000000 -1.000000 -1.000000
v 1.000000 1.000000 -0.999999
v -1.000000 1.000000 -1.000000
v -1.000000 1.000000 1.000000
v 0.999999 1.000000 1.000001
v -1.000000 0.960410 0.100000
v -1.000000 0.960410 -0.100000
v -1.000000 2.360410 -0.100000
v -1.000000 2.360410 0.100000
v -0.800000 2.360410 -0.100000
v -0.800000 0.960410 -0.100000
v -0.800000 2.360410 0.100000
v -0.800000 0.960410 0.100000
v 0.800000 0.960410 0.100000
v 0.800000 0.960410 -0.100000
v 0.800000 2.360410 -0.100000
v 0.800000 2.360410 0.100000
v 1.000000 2.360410 -0.100000
v 1.000000 0.960410 -0.100000
v 1.000000 2.360410 0.100000
v 1.000000 0.960410 0.100000
v -0.800000 2.160410 0.100000
v 0.800000 2.160410 0.100000
v 0.800000 2.160410 -0.100000
v -0.800000 2.160410 -0.100000
v 0.800000 1.960410 -0.100000
v -0.800000 1.960410 -0.100000
v 0.800000 1.960410 0.100000
v -0.800000 1.960410 0.100000
v -0.800000 1.660410 0.100000
v 0.800000 1.660410 0.100000
v 0.800000 1.660410 -0.100000
v -0.800000 1.660410 -0.100000
v 0.800000 1.460410 -0.100000
v -0.800000 1.460410 -0.100000
v 0.800000 1.460410 0.100000
v -0.800000 1.460410 0.100000
vt 0.052778 0.572222
vt 0.052778 0.505556
vt 0.063889 0.505556
vt 0.063889 0.572222
vt 0.075000 0.572222
vt 0.075000 0.505556
vt 0.086111 0.505556
vt 0.086111 0.572222
vt 0.108333 0.505556
vt 0.108333 0.572222
vt 0.097222 0.572222
vt 0.097222 0.505556
vt 0.141667 0.572222
vt 0.141667 0.505556
vt 0.152778 0.505556
vt 0.152778 0.572222
vt 0.208333 0.461111
vt 0.208333 0.450000
vt 0.219444 0.450000
vt 0.219444 0.461111
vt 0.448156 0.571689
vt 0.448156 0.582800
vt 0.437045 0.582800
vt 0.437045 0.571689
vt 0.030556 0.572222
vt 0.030556 0.505556
vt 0.041667 0.505556
vt 0.041667 0.572222
vt 0.186111 0.572222
vt 0.186111 0.505556
vt 0.197222 0.505556
vt 0.197222 0.572222
vt 0.175000 0.505556
vt 0.175000 0.572222
vt 0.163889 0.572222
vt 0.163889 0.505556
vt 0.119444 0.572222
vt 0.119444 0.505556
vt 0.130556 0.505556
vt 0.130556 0.572222
vt 0.097222 0.594444
vt 0.097222 0.583333
vt 0.108333 0.583333
vt 0.108333 0.594444
vt 0.314823 0.682800
vt 0.314823 0.693911
vt 0.303712 0.693911
vt 0.303712 0.682800
vt 0.392601 0.406411
vt 0.392601 0.317523
vt 0.403712 0.317523
vt 0.403712 0.406411
vt 0.097222 0.306944
vt 0.097222 0.218056
vt 0.108333 0.218056
vt 0.108333 0.306944
vt 0.052778 0.306944
vt 0.052778 0.218056
vt 0.063889 0.218056
vt 0.063889 0.306944
vt 0.086111 0.218056
vt 0.086111 0.306944
vt 0.075000 0.306944
vt 0.075000 0.218056
vt 0.030556 0.594444
vt 0.030556 0.583333
vt 0.041667 0.583333
vt 0.041667 0.594444
vt 0.219444 0.438889
vt 0.208333 0.438889
vt 0.208333 0.427778
vt 0.219444 0.427778
vt 0.370379 0.406411
vt 0.370379 0.317523
vt 0.381490 0.317523
vt 0.381490 0.406411
vt 0.197222 0.218056
vt 0.197222 0.306944
vt 0.186111 0.306944
vt 0.186111 0.218056
vt 0.030556 0.306944
vt 0.030556 0.218056
vt 0.041667 0.218056
vt 0.041667 0.306944
vt 0.130556 0.218056
vt 0.130556 0.306944
vt 0.119445 0.306944
vt 0.119444 0.218056
vt 0.052778 0.583333
vt 0.063889 0.583333
vt 0.063889 0.594444
vt 0.052778 0.594444
vt 0.219444 0.405556
vt 0.219444 0.416667
vt 0.208333 0.416667
vt 0.208333 0.405556
vt 0.666467 0.333134
vt 0.333533 0.333134
vt 0.333533 0.000200
vt 0.666467 0.000200
vt 0.999900 0.999899
vt 0.000100 0.999900
vt 0.000100 0.000100
vt 0.999899 0.000100
vt 0.999900 0.000100
vt 0.000100 0.999900
vt 0.000100 0.000100
vt 0.999900 0.000100
vt 0.999900 0.999900
vt 0.000100 0.999900
vt 0.000100 0.000100
vt 0.000100 0.999900
vt 0.999900 0.000100
vt 0.999900 0.999900
vt 0.999900 0.000100
vt 0.999900 0.999900
vt 0.000100 0.999900
vt 0.000100 0.000100
vn -0.9965 -0.0594 0.0590
vn -0.9965 0.0590 0.0594
vn -0.9965 0.0594 -0.0590
vn -0.9965 -0.0590 -0.0594
vn 0.5774 0.5774 -0.5774
vn 0.5774 -0.5774 -0.5774
vn 0.5774 0.5774 0.5774
vn 0.5774 -0.5774 0.5774
vn -0.5774 0.5774 0.5774
vn -0.5774 0.5774 -0.5774
vn -0.5774 -0.5774 -0.5774
vn -0.5774 -0.5774 0.5774
vn 0.0000 -1.0000 -0.0000
vn -0.0000 1.0000 0.0000
vn 1.0000 0.0000 0.0000
vn -0.0000 -0.0000 1.0000
vn -1.0000 -0.0000 0.0000
vn 0.0000 0.0000 -1.0000
usemtl None
s 1
f 9/1/1 12/2/2 11/3/3 10/4/4
f 10/5/4 11/6/3 13/7/5 14/8/6
f 14/9/6 13/10/5 15/11/7 16/12/8
f 16/13/8 15/14/7 12/15/2 9/16/1
f 10/17/4 14/18/6 16/19/8 9/20/1
f 13/21/5 11/22/3 12/23/2 15/24/7
f 17/25/1 20/26/2 19/27/3 18/28/4
f 18/29/4 19/30/3 21/31/5 22/32/6
f 22/33/6 21/34/5 23/35/7 24/36/8
f 24/37/8 23/38/7 20/39/2 17/40/1
f 18/41/4 22/42/6 24/43/8 17/44/1
f 21/45/5 19/46/3 20/47/2 23/48/7
f 25/49/9 26/50/7 27/51/5 28/52/10
f 28/53/10 27/54/5 29/55/6 30/56/11
f 30/57/11 29/58/6 31/59/8 32/60/12
f 32/61/12 31/62/8 26/63/7 25/64/9
f 28/65/10 30/66/11 32/67/12 25/68/9
f 29/69/6 27/70/5 26/71/7 31/72/8
f 33/73/9 34/74/7 35/75/5 36/76/10
f 36/77/10 35/78/5 37/79/6 38/80/11
f 38/81/11 37/82/6 39/83/8 40/84/12
f 40/85/12 39/86/8 34/87/7 33/88/9
f 36/89/10 38/90/11 40/91/12 33/92/9
f 37/93/6 35/94/5 34/95/7 39/96/8
usemtl Material.001
s off
f 1/97/13 2/98/13 3/99/13 4/100/13
f 5/101/14 6/102/14 7/103/14 8/104/14
f 1/105/15 5/101/15 8/106/15 2/107/15
f 2/108/16 8/109/16 7/110/16 3/111/16
f 3/112/17 7/103/17 6/113/17 4/114/17
f 5/115/18 1/116/18 4/117/18 6/118/18
