# Blender v2.92.0 OBJ File: ''
# www.blender.org
mtllib monument.mtl
o Teleport_Cube.014
v 1.166400 1.015201 -2.627494
v 1.166400 1.015201 -2.670694
v 1.080000 0.648001 -2.757094
v 1.080000 0.648001 -2.541094
v 1.209600 1.015201 -2.670694
v 1.296000 0.648001 -2.757094
v 1.209600 1.015201 -2.627494
v 1.296000 0.648001 -2.541094
v 1.190160 1.123201 -2.651254
v 1.190160 1.123201 -2.646934
v 1.185840 1.123201 -2.651254
v 1.185840 1.123201 -2.646934
v -1.209600 1.015201 -2.627494
v -1.209600 1.015201 -2.670694
v -1.296000 0.648001 -2.757094
v -1.296000 0.648001 -2.541094
v -1.166400 1.015201 -2.670694
v -1.080000 0.648001 -2.757094
v -1.166400 1.015201 -2.627494
v -1.080000 0.648001 -2.541094
v -1.185840 1.123201 -2.651254
v -1.185840 1.123201 -2.646934
v -1.190160 1.123201 -2.651254
v -1.190160 1.123201 -2.646934
v -0.777600 0.756001 -2.541094
v -0.777600 0.756001 -2.757094
v -0.777600 0.648001 -2.757094
v -0.777600 0.648001 -2.541094
v 0.777600 0.756001 -2.757094
v 0.777600 0.648001 -2.757094
v 0.777600 0.756001 -2.541094
v 0.777600 0.648001 -2.541094
v 0.103680 0.972001 -2.623174
v -0.103680 0.972001 -2.623174
v 0.025920 1.296001 -2.642614
v -0.025920 1.296001 -2.642614
v -0.103680 0.972001 -2.675014
v 0.103680 0.972001 -2.675014
v -0.025920 1.296001 -2.655574
v 0.025920 1.296001 -2.655574
v -1.296000 0.648001 -2.541094
v -1.296000 0.648001 -2.757094
v -1.296000 0.000001 -2.757094
v -1.296000 0.000001 -2.541094
v 1.296000 0.648001 -2.757094
v 1.296000 0.000001 -2.757094
v 1.296000 0.648001 -2.541094
v 1.296000 0.000001 -2.541094
v 1.080000 0.648001 -1.353094
v 1.080000 0.648001 -2.541094
v 1.080000 0.000001 -2.541094
v 1.080000 0.000001 -1.029094
v 1.296000 0.648001 -2.541094
v 1.296000 0.000001 -2.541094
v 1.296000 0.648001 -1.353094
v 1.296000 0.000001 -1.029094
v -1.296000 0.648001 -1.353094
v -1.296000 0.648001 -2.541094
v -1.296000 0.000001 -2.541094
v -1.296000 0.000001 -1.029094
v -1.080000 0.648001 -2.541094
v -1.080000 0.000001 -2.541094
v -1.080000 0.648001 -1.353094
v -1.080000 0.000001 -1.029094
v -1.229852 0.258163 -0.316264
v -1.229852 0.258163 -0.661865
v -1.402653 -0.001037 -0.834665
v -1.402653 -0.001037 -0.143464
v -0.884252 0.258163 -0.661865
v -0.711452 -0.001037 -0.834665
v -0.884252 0.258163 -0.316264
v -0.711452 -0.001037 -0.143464
v -0.970652 1.446163 -0.575465
v -0.970652 1.446163 -0.402664
v -1.031132 1.878163 -0.514984
v -1.031132 1.878163 -0.463145
v -1.143452 1.446163 -0.402664
v -1.143452 1.446163 -0.575465
v -1.082972 1.878163 -0.514984
v -1.082972 1.878163 -0.463145
v 0.930148 0.258163 -0.316264
v 0.930148 0.258163 -0.661865
v 0.757348 -0.001037 -0.834665
v 0.757348 -0.001037 -0.143464
v 1.275748 0.258163 -0.661865
v 1.448548 -0.001037 -0.834665
v 1.275748 0.258163 -0.316264
v 1.448548 -0.001037 -0.143464
v 1.189348 1.446163 -0.575465
v 1.189348 1.446163 -0.402664
v 1.128868 1.878163 -0.514984
v 1.128868 1.878163 -0.463145
v 1.016548 1.446163 -0.402664
v 1.016548 1.446163 -0.575465
v 1.077028 1.878163 -0.514984
v 1.077028 1.878163 -0.463145
v -0.864000 0.216001 -0.705094
v -0.864000 0.216001 -2.433094
v -0.864000 0.108001 -2.433094
v -0.864000 0.108001 -0.705094
v 0.864000 0.216001 -2.433094
v 0.864000 0.108001 -2.433094
v 0.864000 0.216001 -0.705094
v 0.864000 0.108001 -0.705094
v -0.972000 0.108001 -0.597094
v -0.972000 0.108001 -2.541094
v -0.972000 0.000001 -2.541094
v -0.972000 0.000001 -0.597094
v 0.972000 0.108001 -2.541094
v 0.972000 0.000001 -2.541094
v 0.972000 0.108001 -0.597094
v 0.972000 0.000001 -0.597094
vt -0.130000 -0.130000
vt 1.130000 -0.130000
vt 1.130000 1.130000
vt -0.130000 1.130000
vt -0.130000 -0.130000
vt 1.130000 -0.130000
vt 1.130000 1.130000
vt -0.130000 1.130000
vt -0.130000 -0.130000
vt 1.130000 -0.130000
vt 1.130000 1.130000
vt -0.130000 1.130000
vt -0.130000 -0.130000
vt 1.130000 -0.130000
vt 1.130000 1.130000
vt -0.130000 1.130000
vt -0.130000 -0.130000
vt 1.130000 -0.130000
vt -0.130000 -0.130000
vt 1.130000 -0.130000
vt -0.130000 -0.130000
vt 1.130000 -0.130000
vt 1.130000 1.130000
vt -0.130000 1.130000
vt -0.130000 -0.130000
vt 1.130000 -0.130000
vt 1.130000 -0.130000
vt -0.130000 -0.130000
vt -0.130000 -0.130000
vt 1.130000 -0.130000
vt 1.130000 1.130000
vt -0.130000 1.130000
vt -0.130000 -0.130000
vt 1.130000 -0.130000
vt 1.130000 1.130000
vt -0.130000 1.130000
vt -0.130000 -0.130000
vt 1.130000 -0.130000
vt 1.130000 1.130000
vt -0.130000 1.130000
vt -0.130000 -0.130000
vt 1.130000 -0.130000
vt 1.130000 1.130000
vt -0.130000 1.130000
vt -0.130000 -0.130000
vt 1.130000 -0.130000
vt -0.130000 -0.130000
vt 1.130000 -0.130000
vt -0.130000 -0.130000
vt 1.130000 -0.130000
vt 1.130000 1.130000
vt -0.130000 1.130000
vt -0.130000 -0.130000
vt 1.130000 -0.130000
vt 1.130000 -0.130000
vt -0.130000 -0.130000
vt -0.130000 -0.130000
vt 1.130000 -0.130000
vt 1.130000 1.130000
vt -0.130000 1.130000
vt -0.130000 -0.130000
vt 1.130000 -0.130000
vt 1.130000 1.130000
vt -0.130000 1.130000
vt -0.130000 -0.130000
vt 1.130000 -0.130000
vt 1.130000 1.130000
vt -0.130000 1.130000
vt -0.130000 -0.130000
vt 1.130000 -0.130000
vt 1.130000 1.130000
vt -0.130000 1.130000
vt -0.130000 -0.130000
vt 1.130000 -0.130000
vt -0.130000 -0.130000
vt 1.130000 -0.130000
vt -0.130000 -0.130000
vt 1.130000 -0.130000
vt -0.130000 -0.130000
vt 1.130000 -0.130000
vt -0.130000 -0.130000
vt 1.130000 -0.130000
vt -0.130000 -0.130000
vt 1.130000 -0.130000
vt -0.130000 -0.130000
vt 1.130000 -0.130000
vt -0.130000 -0.130000
vt 1.130000 -0.130000
vt -0.130000 -0.130000
vt 1.130000 -0.130000
vt -0.130000 -0.130000
vt 1.130000 -0.130000
vt 1.130000 1.130000
vt -0.130000 1.130000
vt -0.130000 -0.130000
vt 1.130000 -0.130000
vt 1.130000 1.130000
vt -0.130000 1.130000
vt -0.130000 -0.130000
vt 1.130000 -0.130000
vt 1.130000 1.130000
vt -0.130000 1.130000
vt -0.130000 -0.130000
vt 1.130000 -0.130000
vt 1.130000 1.130000
vt -0.130000 1.130000
vt -0.130000 -0.130000
vt 1.130000 -0.130000
vt 1.130000 1.130000
vt -0.130000 1.130000
vt -0.130000 -0.130000
vt 1.130000 -0.130000
vt 1.130000 1.130000
vt -0.130000 1.130000
vt -0.130000 -0.130000
vt 1.130000 -0.130000
vt 1.130000 1.130000
vt -0.130000 1.130000
vt -0.130000 -0.130000
vt 1.130000 -0.130000
vt 1.130000 1.130000
vt -0.130000 1.130000
vt -0.130000 -0.130000
vt 1.130000 -0.130000
vt 1.130000 1.130000
vt -0.130000 1.130000
vt -0.130000 -0.130000
vt 1.130000 -0.130000
vt 1.130000 1.130000
vt -0.130000 1.130000
vt -0.130000 -0.130000
vt 1.130000 -0.130000
vt 1.130000 1.130000
vt -0.130000 1.130000
vt -0.130000 -0.130000
vt 1.130000 -0.130000
vt 1.130000 1.130000
vt -0.130000 1.130000
vt -0.130000 -0.130000
vt 1.130000 -0.130000
vt 1.130000 1.130000
vt -0.130000 1.130000
vt -0.130000 -0.130000
vt 1.130000 -0.130000
vt 1.130000 1.130000
vt -0.130000 1.130000
vt -0.130000 -0.130000
vt 1.130000 -0.130000
vt 1.130000 1.130000
vt -0.130000 1.130000
vt -0.130000 -0.130000
vt 1.130000 -0.130000
vt 1.130000 1.130000
vt -0.130000 1.130000
vt -0.130000 -0.130000
vt 1.130000 -0.130000
vt 1.130000 1.130000
vt -0.130000 1.130000
vt -0.130000 -0.130000
vt 1.130000 -0.130000
vt 1.130000 1.130000
vt -0.130000 1.130000
vt -0.130000 -0.130000
vt 1.130000 -0.130000
vt 1.130000 1.130000
vt -0.130000 1.130000
vt -0.130000 -0.130000
vt 1.130000 -0.130000
vt -0.130000 -0.130000
vt 1.130000 -0.130000
vt -0.130000 -0.130000
vt 1.130000 -0.130000
vt -0.130000 -0.130000
vt 1.130000 -0.130000
vt -0.130000 -0.130000
vt 1.130000 -0.130000
vt -0.130000 -0.130000
vt 1.130000 -0.130000
vt -0.130000 -0.130000
vt 1.130000 -0.130000
vt 1.130000 1.130000
vt -0.130000 1.130000
vt -0.130000 -0.130000
vt 1.130000 -0.130000
vt 1.130000 -0.130000
vt -0.130000 -0.130000
vt -0.130000 -0.130000
vt 1.130000 -0.130000
vt 1.130000 1.130000
vt -0.130000 1.130000
vt -0.130000 -0.130000
vt 1.130000 -0.130000
vt 1.130000 1.130000
vt -0.130000 1.130000
vt -0.130000 -0.130000
vt 1.130000 -0.130000
vt 1.130000 1.130000
vt -0.130000 1.130000
vt -0.130000 -0.130000
vt 1.130000 -0.130000
vt 1.130000 1.130000
vt -0.130000 1.130000
vt -0.130000 -0.130000
vt 1.130000 -0.130000
vt -0.130000 -0.130000
vt 1.130000 -0.130000
vt -0.130000 -0.130000
vt 1.130000 -0.130000
vt -0.130000 -0.130000
vt 1.130000 -0.130000
vt -0.130000 -0.130000
vt 1.130000 -0.130000
vt -0.130000 -0.130000
vt 1.130000 -0.130000
vt -0.130000 -0.130000
vt 1.130000 -0.130000
vt 1.130000 1.130000
vt -0.130000 1.130000
vt -0.130000 -0.130000
vt 1.130000 -0.130000
vt 1.130000 -0.130000
vt -0.130000 -0.130000
vt -0.130000 -0.130000
vt 1.130000 -0.130000
vt 1.130000 1.130000
vt -0.130000 1.130000
vt -0.130000 -0.130000
vt 1.130000 -0.130000
vt 1.130000 1.130000
vt -0.130000 1.130000
vt -0.130000 -0.130000
vt 1.130000 -0.130000
vt 1.130000 1.130000
vt -0.130000 1.130000
vt -0.130000 -0.130000
vt 1.130000 -0.130000
vt 1.130000 1.130000
vt -0.130000 1.130000
vt -0.130000 -0.130000
vt 1.130000 -0.130000
vt 1.130000 1.130000
vt -0.130000 1.130000
vt -0.130000 -0.130000
vt 1.130000 -0.130000
vt 1.130000 1.130000
vt -0.130000 1.130000
vt -0.130000 -0.130000
vt 1.130000 -0.130000
vt 1.130000 1.130000
vt -0.130000 1.130000
vt -0.130000 -0.130000
vt 1.130000 -0.130000
vt 1.130000 1.130000
vt -0.130000 1.130000
vt -0.130000 -0.130000
vt 1.130000 -0.130000
vt 1.130000 1.130000
vt -0.130000 1.130000
vt -0.130000 -0.130000
vt 1.130000 -0.130000
vt 1.130000 1.130000
vt -0.130000 1.130000
vn -0.9734 0.2290 0.0000
vn 0.0000 0.2290 -0.9734
vn 0.9734 0.2290 0.0000
vn 0.0000 0.2290 0.9734
vn 0.0000 -1.0000 -0.0000
vn 0.9842 0.1772 0.0000
vn 0.0000 1.0000 0.0000
vn -0.9842 0.1772 0.0000
vn 0.0000 0.1771 0.9842
vn 0.0000 0.1771 -0.9842
vn -1.0000 0.0000 0.0000
vn 0.0000 0.0000 -1.0000
vn 1.0000 0.0000 0.0000
vn 0.0000 0.0000 1.0000
vn 0.0000 0.3552 0.9348
vn 0.0000 0.0599 0.9982
vn 0.0000 0.3552 -0.9348
vn 0.3052 0.9523 0.0000
vn -0.3052 0.9523 0.0000
vn 0.0000 0.0599 -0.9982
vn 0.9724 0.2334 0.0000
vn -0.9724 0.2334 0.0000
vn 0.0000 0.4472 0.8944
vn -0.8320 0.5547 0.0000
vn 0.0000 0.5547 -0.8321
vn 0.8321 0.5547 0.0000
vn 0.0000 0.5547 0.8321
vn 0.9974 0.0725 0.0000
vn 0.9903 0.1386 0.0000
vn -0.9974 0.0725 0.0000
vn 0.0000 0.0725 0.9974
vn 0.0000 0.0725 -0.9974
vn -0.9903 0.1386 0.0000
vn 0.0000 0.1387 0.9903
vn 0.0000 0.1387 -0.9903
vn -0.8321 0.5547 0.0000
vn 0.0000 0.1386 0.9903
usemtl None.001
s 1
f 1/1/1 2/2/1 3/3/1 4/4/1
f 2/5/2 5/6/2 6/7/2 3/8/2
f 5/9/3 7/10/3 8/11/3 6/12/3
f 7/13/4 1/14/4 4/15/4 8/16/4
f 4/17/5 3/18/5 6/7/5 8/16/5
f 7/10/6 5/9/6 9/19/6 10/20/6
f 10/21/7 9/22/7 11/23/7 12/24/7
f 2/2/8 1/1/8 12/25/8 11/26/8
f 1/14/9 7/13/9 10/21/9 12/27/9
f 5/6/10 2/5/10 11/28/10 9/22/10
f 13/29/1 14/30/1 15/31/1 16/32/1
f 14/33/2 17/34/2 18/35/2 15/36/2
f 17/37/3 19/38/3 20/39/3 18/40/3
f 19/41/4 13/42/4 16/43/4 20/44/4
f 16/45/5 15/46/5 18/35/5 20/44/5
f 19/38/6 17/37/6 21/47/6 22/48/6
f 22/49/7 21/50/7 23/51/7 24/52/7
f 14/30/8 13/29/8 24/53/8 23/54/8
f 13/42/9 19/41/9 22/49/9 24/55/9
f 17/34/10 14/33/10 23/56/10 21/50/10
f 25/57/11 26/58/11 27/59/11 28/60/11
f 26/61/12 29/62/12 30/63/12 27/64/12
f 29/65/13 31/66/13 32/67/13 30/68/13
f 31/69/14 25/70/14 28/71/14 32/72/14
f 28/73/5 27/74/5 30/63/5 32/72/5
f 25/70/15 31/69/15 33/75/15 34/76/15
f 34/76/16 33/75/16 35/77/16 36/78/16
f 29/62/17 26/61/17 37/79/17 38/80/17
f 31/66/18 29/65/18 38/81/18 33/82/18
f 26/58/19 25/57/19 34/83/19 37/84/19
f 38/80/20 37/79/20 39/85/20 40/86/20
f 33/82/21 38/81/21 40/87/21 35/88/21
f 37/84/22 34/83/22 36/89/22 39/90/22
f 41/91/11 42/92/11 43/93/11 44/94/11
f 42/95/12 45/96/12 46/97/12 43/98/12
f 45/99/13 47/100/13 48/101/13 46/102/13
f 47/103/14 41/104/14 44/105/14 48/106/14
f 44/107/5 43/108/5 46/97/5 48/106/5
f 47/103/7 45/96/7 42/109/7 41/110/7
f 49/111/11 50/112/11 51/113/11 52/114/11
f 50/115/12 53/116/12 54/117/12 51/118/12
f 53/119/13 55/120/13 56/121/13 54/122/13
f 55/123/23 49/124/23 52/125/23 56/126/23
f 52/127/5 51/128/5 54/117/5 56/126/5
f 55/123/7 53/116/7 50/129/7 49/130/7
f 57/131/11 58/132/11 59/133/11 60/134/11
f 58/135/12 61/136/12 62/137/12 59/138/12
f 61/139/13 63/140/13 64/141/13 62/142/13
f 63/143/23 57/144/23 60/145/23 64/146/23
f 60/147/5 59/148/5 62/137/5 64/146/5
f 63/143/7 61/136/7 58/149/7 57/150/7
f 65/151/24 66/152/24 67/153/24 68/154/24
f 66/155/25 69/156/25 70/157/25 67/158/25
f 69/159/26 71/160/26 72/161/26 70/162/26
f 71/163/27 65/164/27 68/165/27 72/166/27
f 68/167/5 67/168/5 70/157/5 72/166/5
f 71/160/28 69/159/28 73/169/28 74/170/28
f 74/170/29 73/169/29 75/171/29 76/172/29
f 66/152/30 65/151/30 77/173/30 78/174/30
f 65/164/31 71/163/31 74/175/31 77/176/31
f 69/156/32 66/155/32 78/177/32 73/178/32
f 76/179/7 75/180/7 79/181/7 80/182/7
f 78/174/33 77/173/33 80/183/33 79/184/33
f 77/176/34 74/175/34 76/179/34 80/185/34
f 73/178/35 78/177/35 79/186/35 75/180/35
f 81/187/36 82/188/36 83/189/36 84/190/36
f 82/191/25 85/192/25 86/193/25 83/194/25
f 85/195/26 87/196/26 88/197/26 86/198/26
f 87/199/27 81/200/27 84/201/27 88/202/27
f 84/203/5 83/204/5 86/193/5 88/202/5
f 87/196/28 85/195/28 89/205/28 90/206/28
f 90/206/29 89/205/29 91/207/29 92/208/29
f 82/188/30 81/187/30 93/209/30 94/210/30
f 81/200/31 87/199/31 90/211/31 93/212/31
f 85/192/32 82/191/32 94/213/32 89/214/32
f 92/215/7 91/216/7 95/217/7 96/218/7
f 94/210/33 93/209/33 96/219/33 95/220/33
f 93/212/37 90/211/37 92/215/37 96/221/37
f 89/214/35 94/213/35 95/222/35 91/216/35
f 97/223/11 98/224/11 99/225/11 100/226/11
f 98/227/12 101/228/12 102/229/12 99/230/12
f 101/231/13 103/232/13 104/233/13 102/234/13
f 103/235/14 97/236/14 100/237/14 104/238/14
f 100/239/5 99/240/5 102/229/5 104/238/5
f 103/235/7 101/228/7 98/241/7 97/242/7
f 105/243/11 106/244/11 107/245/11 108/246/11
f 106/247/12 109/248/12 110/249/12 107/250/12
f 109/251/13 111/252/13 112/253/13 110/254/13
f 111/255/14 105/256/14 108/257/14 112/258/14
f 108/259/5 107/260/5 110/249/5 112/258/5
f 111/255/7 109/248/7 106/261/7 105/262/7
