# Blender v2.79 (sub 0) OBJ File: 'treecube.blend'
# www.blender.org
mtllib treecube.mtl
o Cube_1_2_Untitled.001
v 0.144173 2.932840 0.151697
v -0.159221 0.705529 0.151697
v 0.144173 0.705529 0.151697
v 0.144173 2.932840 -0.151697
v 0.144173 0.705529 -0.151697
v -0.159221 2.932840 -0.151697
v -0.159221 0.705529 -0.151697
v -0.159221 2.932840 0.151697
v 0.166503 5.152167 -0.232757
v 0.422580 4.271586 0.135116
v 0.497902 4.231897 -0.189182
v 0.153979 5.153739 -0.230647
v 0.151677 5.152167 -0.243139
v 0.150843 5.150476 -0.243361
v 0.342913 4.214241 -0.465435
v 0.164490 5.148765 -0.245658
v 0.027145 4.229213 -0.544293
v 0.158000 5.149578 -0.244565
v -0.258727 4.266462 -0.390610
v -0.336583 4.304331 -0.085399
v 0.137644 4.308754 0.288682
v 0.160574 5.152910 -0.231759
v 0.081351 4.268339 -0.134670
v 0.158273 5.151339 -0.244250
v 0.838183 3.388109 -0.131031
v 0.269376 4.327157 -0.373781
v 0.297257 4.347112 -0.172127
v 0.100639 3.484415 0.752313
v -0.090820 4.406402 0.097287
v -0.501728 3.501235 0.575007
v -0.148480 4.365130 -0.319769
v -0.777921 3.475110 0.001894
v -0.120599 4.385087 -0.118115
v -0.037785 3.379998 -0.862297
v 0.060787 4.346112 -0.346818
v 0.563638 3.363228 -0.684915
v 0.030700 3.431766 -0.061913
v 1.140638 2.595695 -0.069923
v 0.419106 3.508766 -0.521894
v 0.457517 3.537535 -0.108603
v -0.422215 3.558193 -0.447142
v -1.137633 2.653105 0.023674
v -0.383804 3.586963 -0.033851
v -0.045353 2.587131 -1.152326
v -0.001215 3.533459 -0.484549
v -0.344105 3.616697 0.393292
v 0.050113 2.662284 1.125350
v 0.076895 3.591963 0.355886
v 0.788776 2.576932 -0.868279
v 0.001955 2.624479 -0.020444
v -0.007051 1.831933 1.538062
v 0.670791 2.777226 0.583564
v 0.037609 2.796340 0.614351
v -1.545586 1.831933 -0.009671
v -0.596258 2.815474 0.645171
v -0.628140 2.790565 0.004917
v 1.530537 1.831933 -0.009671
v 0.638909 2.752318 -0.056692
v -0.007183 1.831933 -0.006972
v -1.116422 1.831933 1.108898
v -0.007051 1.831934 -1.538061
v -0.659330 2.766196 -0.621424
v -0.025465 2.747063 -0.652244
v 0.327036 4.368427 0.043274
v 0.497216 3.567269 0.318540
v -0.784961 2.672505 0.841341
v 0.607718 2.727951 -0.683031
v 1.101374 1.831934 -1.108898
v -0.179060 4.323809 0.209940
v 0.118445 4.387385 0.070236
v -0.601526 3.425953 -0.589079
v -0.853791 2.618322 -0.800798
v 1.101374 1.831933 1.108898
v 0.164201 5.150596 -0.245249
v 0.663437 3.438510 0.479172
v 0.857604 2.631114 0.773860
v -1.116422 1.831934 -1.108898
v 1.000000 -1.000000 -1.000000
v 1.000000 -1.000000 1.000000
v -1.000000 -1.000000 1.000000
v -1.000000 -1.000000 -1.000000
v 1.000000 1.000000 -0.999999
v 0.999999 1.000000 1.000000
v -1.000000 1.000000 1.000000
v -1.000000 1.000000 -1.000000
vt 0.865600 0.788600
vt 0.768200 0.691100
vt 0.865600 0.691100
vt 0.865600 0.788600
vt 0.768200 0.691100
vt 0.865600 0.691100
vt 0.865600 0.788600
vt 0.768200 0.691100
vt 0.865600 0.691100
vt 0.865600 0.788600
vt 0.768200 0.691100
vt 0.865600 0.691100
vt 0.768200 0.788600
vt 0.768200 0.788600
vt 0.768200 0.788600
vt 0.768200 0.788600
vt 0.275200 0.971300
vt 0.218000 0.856900
vt 0.279500 0.856900
vt 0.281200 0.971300
vt 0.275200 0.971300
vt 0.275100 0.971100
vt 0.338400 0.856900
vt 0.281300 0.971100
vt 0.278100 0.856900
vt 0.281300 0.971100
vt 0.278000 0.971100
vt 0.218000 0.856900
vt 0.276800 0.856900
vt 0.275200 0.971300
vt 0.278200 0.856900
vt 0.278300 0.971300
vt 0.272700 0.736200
vt 0.518900 0.495700
vt 0.518900 0.736200
vt 0.037400 0.495700
vt 0.291000 0.977300
vt 0.037400 0.977300
vt 0.279600 0.736500
vt 0.338400 0.856900
vt 0.280200 0.856900
vt 0.278200 0.736500
vt 0.218000 0.856900
vt 0.157800 0.736500
vt 0.218000 0.856900
vt 0.276700 0.736500
vt 0.276200 0.856900
vt 0.218000 0.856900
vt 0.278100 0.736500
vt 0.278100 0.856900
vt 0.518900 0.495700
vt 0.278300 0.733600
vt 0.278300 0.495700
vt 0.279700 0.616100
vt 0.398600 0.736500
vt 0.280200 0.736500
vt 0.157800 0.736500
vt 0.276600 0.616100
vt 0.276200 0.736500
vt 0.157800 0.736500
vt 0.278100 0.616100
vt 0.278100 0.736500
vt 0.157800 0.736500
vt 0.278200 0.616100
vt 0.278300 0.736500
vt 0.518900 0.495700
vt 0.278300 0.734400
vt 0.278300 0.495700
vt 0.278200 0.495700
vt 0.458800 0.616100
vt 0.458800 0.616100
vt 0.276700 0.495700
vt 0.458800 0.616100
vt 0.458800 0.616100
vt 0.097600 0.616100
vt 0.279700 0.495700
vt 0.280200 0.616100
vt 0.278200 0.735000
vt 0.037400 0.977300
vt 0.037400 0.735000
vt 0.278100 0.495700
vt 0.458800 0.616100
vt 0.278100 0.616100
vt 0.281200 0.971300
vt 0.278000 0.971300
vt 0.037400 0.495700
vt 0.272700 0.495700
vt 0.218000 0.856900
vt 0.338400 0.856900
vt 0.037400 0.977300
vt 0.037400 0.733600
vt 0.157800 0.736500
vt 0.398600 0.736500
vt 0.037400 0.977300
vt 0.037400 0.734400
vt 0.458800 0.616100
vt 0.518900 0.495700
vt 0.518900 0.735000
vt 0.275100 0.971100
vt 0.281200 0.971300
vt 0.518900 0.977300
vt 0.518900 0.495700
vt 0.291000 0.495700
vt 0.338400 0.856900
vt 0.278300 0.856900
vt 0.338400 0.856900
vt 0.037400 0.495700
vt 0.398600 0.736500
vt 0.398600 0.736500
vt 0.037400 0.495700
vt 0.518900 0.977300
vt 0.278200 0.977300
vt 0.097600 0.616100
vt 0.275200 0.971300
vt 0.037400 0.977300
vt 0.037400 0.736200
vt 0.518900 0.977300
vt 0.278300 0.977300
vt 0.518900 0.977300
vt 0.278300 0.977300
vt 0.037400 0.495700
vt 0.278200 0.495700
vt 0.281200 0.971300
vt 0.338400 0.856900
vt 0.338400 0.856900
vt 0.218000 0.856900
vt 0.398600 0.736500
vt 0.157800 0.736500
vt 0.157800 0.736500
vt 0.518900 0.733600
vt 0.458800 0.616100
vt 0.097600 0.616100
vt 0.097600 0.616100
vt 0.097600 0.616100
vt 0.518900 0.734400
vt 0.518900 0.495700
vt 0.518900 0.495700
vt 0.037400 0.495700
vt 0.518900 0.495700
vt 0.157800 0.736500
vt 0.398600 0.736500
vt 0.097600 0.616100
vt 0.458800 0.616100
vt 0.218000 0.856900
vt 0.338400 0.856900
vt 0.272700 0.977300
vt 0.518900 0.977300
vt 0.398600 0.736500
vt 0.398600 0.736500
vt 0.458800 0.616100
vt 0.458800 0.616100
vt 0.037400 0.495700
vt 0.037400 0.495700
vt 0.666467 0.333134
vt 0.333533 0.333134
vt 0.333533 0.000200
vt 0.666467 0.000200
vt 0.999900 0.999899
vt 0.000100 0.999900
vt 0.000100 0.000100
vt 0.999899 0.000100
vt 0.999900 0.000100
vt 0.000100 0.999900
vt 0.000100 0.000100
vt 0.999900 0.000100
vt 0.999900 0.999900
vt 0.000100 0.999900
vt 0.000100 0.000100
vt 0.000100 0.999900
vt 0.999900 0.000100
vt 0.999900 0.999900
vt 0.999900 0.000100
vt 0.999900 0.999900
vt 0.000100 0.999900
vt 0.000100 0.000100
vn 0.0000 -0.0000 1.0000
vn 1.0000 0.0000 0.0000
vn 0.0000 0.0000 -1.0000
vn -1.0000 -0.0000 0.0000
vn 0.9602 0.1670 0.2240
vn 0.9266 0.3501 0.1370
vn 0.8960 0.4180 0.1499
vn -0.9138 0.4046 -0.0361
vn -0.8891 0.4158 0.1914
vn -0.8654 0.4837 0.1310
vn 0.7931 0.2486 -0.5561
vn 0.8187 0.3454 -0.4587
vn 0.8496 0.1901 -0.4919
vn -0.1169 0.3320 -0.9360
vn -0.1097 0.2591 -0.9596
vn -0.1173 0.3190 -0.9405
vn -0.8853 0.3822 -0.2648
vn -0.8254 0.5026 -0.2572
vn -0.8442 0.4190 -0.3343
vn 0.2196 0.3748 0.9007
vn 0.2365 0.5069 0.8289
vn 0.1839 0.5019 0.8452
vn -0.0731 -0.9918 0.1044
vn 0.1370 0.9491 -0.2835
vn 0.0997 0.9848 -0.1423
vn 0.1797 0.9742 -0.1364
vn 0.8514 0.4962 -0.1702
vn 0.8469 0.4931 -0.1990
vn 0.8524 0.4950 -0.1684
vn -0.1814 0.5272 0.8301
vn -0.2259 0.5207 0.8233
vn -0.2231 0.5147 0.8279
vn -0.8162 0.5764 0.0403
vn -0.8103 0.5826 0.0634
vn -0.8126 0.5812 0.0441
vn -0.0409 0.4976 -0.8664
vn -0.0789 0.4663 -0.8811
vn -0.0598 0.4662 -0.8826
vn -0.0480 -0.9965 0.0686
vn 0.7938 0.5959 -0.1212
vn 0.7903 0.5973 -0.1368
vn 0.7959 0.5955 -0.1090
vn -0.7900 0.6119 0.0376
vn -0.7830 0.6212 0.0319
vn -0.7820 0.6230 0.0158
vn -0.0083 0.5858 -0.8104
vn -0.0421 0.5687 -0.8214
vn -0.0253 0.5709 -0.8206
vn 0.1020 0.6176 0.7799
vn 0.1168 0.6293 0.7683
vn 0.1058 0.6246 0.7738
vn -0.0238 -0.9991 0.0340
vn 0.0620 0.6823 0.7284
vn 0.0356 0.6897 0.7232
vn 0.0630 0.6814 0.7292
vn -0.7117 0.7024 0.0128
vn -0.7023 0.7115 0.0250
vn -0.7205 0.6934 -0.0114
vn 0.7306 0.6790 -0.0713
vn 0.7216 0.6885 -0.0731
vn 0.7241 0.6877 -0.0523
vn -0.0000 -1.0000 -0.0000
vn -0.0181 0.7066 -0.7074
vn -0.0183 0.7174 -0.6964
vn 0.0064 0.6984 -0.7157
vn -0.1393 0.1988 -0.9701
vn -0.0641 0.1673 -0.9838
vn -0.1390 0.1952 -0.9709
vn 0.8603 0.4874 -0.1497
vn 0.8517 0.4968 -0.1665
vn 0.8600 0.4757 -0.1848
vn -0.8114 0.5813 0.0618
vn -0.8133 0.5801 0.0451
vn -0.8110 0.5816 0.0635
vn 0.8154 0.5692 -0.1055
vn 0.7940 0.5971 -0.1141
vn 0.8008 0.5838 -0.1338
vn -0.7835 0.6208 0.0284
vn -0.7725 0.6349 0.0105
vn -0.7847 0.6188 0.0359
vn -0.7287 0.6845 -0.0211
vn -0.7117 0.7025 0.0058
vn -0.7081 0.7060 0.0116
vn 0.7245 0.6857 -0.0697
vn 0.7207 0.6922 -0.0387
vn 0.7253 0.6848 -0.0702
vn -0.1926 0.2828 -0.9397
vn 0.2365 0.5067 0.8290
vn 0.0330 0.4628 0.8859
vn 0.2160 0.4902 0.8444
vn -0.0461 0.9660 -0.2544
vn 0.0995 0.9848 -0.1421
vn 0.1178 0.9805 -0.1572
vn 0.1784 0.5582 0.8103
vn 0.1667 0.6047 0.7788
vn 0.1957 0.5631 0.8029
vn -0.0770 0.4650 -0.8819
vn -0.0562 0.4890 -0.8705
vn -0.0806 0.4655 -0.8814
vn -0.0383 0.5683 -0.8219
vn -0.0154 0.5755 -0.8176
vn -0.0463 0.5661 -0.8230
vn 0.0950 0.6436 0.7595
vn 0.0235 0.6928 0.7207
vn 0.0654 0.6847 0.7259
vn 0.0456 0.6844 0.7277
vn -0.0264 0.6801 -0.7327
vn -0.0106 0.7068 -0.7073
vn -0.0178 0.7098 -0.7042
vn -0.2524 0.1904 -0.9487
vn 0.8835 0.3925 -0.2557
vn 0.9491 0.2639 -0.1720
vn 0.9495 0.1450 -0.2784
vn 0.9858 0.1166 -0.1207
vn 0.9145 0.1516 -0.3751
vn 0.9591 0.2488 -0.1353
vn -0.8486 0.5080 0.1474
vn -0.8270 0.5598 0.0510
vn -0.8901 0.4524 -0.0547
vn -0.7704 0.5445 0.3318
vn -0.8359 0.3761 0.3998
vn -0.7448 0.5658 0.3537
vn -0.4215 0.3331 -0.8434
vn -0.3497 0.3281 -0.8775
vn -0.4366 0.2705 -0.8580
vn -0.2273 0.3858 0.8941
vn -0.1304 0.5395 0.8318
vn -0.1534 0.5303 0.8338
vn 0.2421 0.9536 -0.1788
vn 0.0840 0.9834 -0.1606
vn 0.0993 0.9849 -0.1421
vn 0.8085 0.3901 -0.4406
vn 0.8197 0.4181 -0.3916
vn 0.8008 0.4203 -0.4268
vn 0.1853 0.5615 0.8065
vn 0.1238 0.5634 0.8169
vn 0.1680 0.5863 0.7925
vn -0.8246 0.4754 -0.3067
vn -0.8236 0.4963 -0.2747
vn -0.8315 0.4828 -0.2748
vn 0.2665 0.4052 -0.8745
vn 0.2336 0.3920 -0.8898
vn 0.2600 0.3685 -0.8925
vn 0.7989 0.4619 -0.3852
vn 0.8061 0.4841 -0.3403
vn 0.7961 0.4859 -0.3608
vn -0.8270 0.4692 -0.3097
vn -0.8139 0.5013 -0.2938
vn -0.8230 0.4861 -0.2938
vn 0.3030 0.4597 -0.8348
vn 0.2609 0.4497 -0.8542
vn 0.2863 0.4297 -0.8564
vn -0.2860 0.5012 0.8167
vn -0.2592 0.5209 0.8133
vn -0.2606 0.5191 0.8140
vn 0.2966 0.5553 0.7770
vn 0.2889 0.5717 0.7679
vn 0.2890 0.5510 0.7829
vn -0.7696 0.5578 0.3107
vn -0.7718 0.5762 0.2689
vn -0.7644 0.5785 0.2847
vn 0.7993 0.5129 0.3130
vn 0.7931 0.5343 0.2925
vn 0.7937 0.5332 0.2929
vn -0.3135 0.5579 -0.7684
vn -0.2731 0.5717 -0.7737
vn -0.2780 0.5736 -0.7705
vn -0.1425 0.1961 -0.9702
vn -0.0722 0.1999 -0.9772
vn -0.1558 0.1167 -0.9809
vn 0.8719 0.4370 0.2209
vn 0.8825 0.4278 0.1953
vn 0.8709 0.4368 0.2252
vn -0.7788 0.5230 0.3463
vn -0.7579 0.5426 0.3621
vn -0.7779 0.5213 0.3507
vn 0.8460 0.4523 0.2823
vn 0.8511 0.4619 0.2497
vn 0.8381 0.4699 0.2771
vn -0.7934 0.5174 0.3207
vn -0.7878 0.5295 0.3147
vn -0.7981 0.5147 0.3133
vn -0.7646 0.5545 -0.3285
vn -0.7832 0.5575 -0.2754
vn -0.7738 0.5482 -0.3173
vn 0.7752 0.5565 -0.2989
vn 0.7689 0.5687 -0.2922
vn 0.7833 0.5498 -0.2899
vn 0.2435 0.1837 -0.9523
vn 0.1692 0.2760 -0.9462
vn 0.2464 0.2756 -0.9292
vn 0.4825 0.4248 0.7660
vn 0.4464 0.4827 0.7535
vn 0.4680 0.2853 0.8364
vn 0.0454 0.9479 -0.3152
vn 0.0292 0.9982 -0.0516
vn 0.0995 0.9848 -0.1423
vn 0.3977 0.4697 0.7882
vn 0.3944 0.5217 0.7565
vn 0.4034 0.5206 0.7525
vn -0.3658 0.4054 -0.8378
vn -0.3508 0.4226 -0.8356
vn -0.3506 0.4131 -0.8405
vn -0.3313 0.4576 -0.8251
vn -0.3239 0.4666 -0.8230
vn -0.3312 0.4454 -0.8318
vn 0.3620 0.5062 0.7828
vn 0.3468 0.5284 0.7749
vn 0.3425 0.5172 0.7843
vn -0.3190 0.5548 0.7684
vn -0.2697 0.5484 0.7915
vn -0.2947 0.5361 0.7911
vn 0.3131 0.5203 -0.7945
vn 0.2976 0.5456 -0.7834
vn 0.3159 0.5466 -0.7755
vn -0.2019 0.0979 -0.9745
vn -0.1897 0.2588 -0.9471
vn -0.1354 0.1953 -0.9714
vn 0.0000 1.0000 0.0000
usemtl Mat.1
s 1
f 1/1/1 2/2/1 3/3/1
f 4/4/2 3/5/2 5/6/2
f 6/7/3 5/8/3 7/9/3
f 8/10/4 7/11/4 2/12/4
f 1/1/1 8/13/1 2/2/1
f 4/4/2 1/14/2 3/5/2
f 6/7/3 4/15/3 5/8/3
f 8/10/4 6/16/4 7/11/4
usemtl Mat
f 9/17/5 10/18/6 11/19/7
f 12/20/8 13/21/9 14/22/10
f 11/19/11 15/23/12 16/24/13
f 17/25/14 14/26/15 18/27/16
f 14/22/17 19/28/18 20/29/19
f 12/30/20 21/31/21 22/32/22
f 23/33/23 10/34/23 21/35/23
f 12/36/24 24/37/25 13/38/26
f 25/39/27 26/40/28 27/41/29
f 28/42/30 29/43/31 30/44/32
f 31/45/33 32/46/34 33/47/35
f 26/48/36 34/49/37 35/50/38
f 36/51/39 37/52/39 34/53/39
f 38/54/40 39/55/41 40/56/42
f 41/57/43 42/58/44 43/59/45
f 39/60/46 44/61/47 45/62/48
f 46/63/49 47/64/50 48/65/51
f 49/66/52 50/67/52 44/68/52
f 51/69/53 52/70/54 53/71/55
f 54/72/56 55/73/57 56/74/58
f 52/75/59 57/76/60 58/77/61
f 59/78/62 60/79/62 54/80/62
f 61/81/63 62/82/64 63/83/65
f 18/27/66 13/84/67 24/85/68
f 23/33/23 15/86/23 11/87/23
f 64/88/69 25/39/70 27/41/71
f 32/46/72 29/89/73 33/47/74
f 37/52/39 30/90/39 32/91/39
f 65/92/75 38/54/76 40/56/77
f 42/58/78 46/93/79 43/59/80
f 50/67/52 66/94/52 42/95/52
f 62/82/81 54/72/82 56/74/83
f 57/76/84 67/96/85 58/77/86
f 59/78/62 68/97/62 57/98/62
f 16/99/87 17/25/14 18/27/16
f 21/31/88 9/100/89 22/32/90
f 69/101/23 23/33/23 21/35/23
f 9/102/91 24/37/92 22/103/93
f 28/42/94 64/104/95 70/105/96
f 34/49/97 31/106/98 35/50/99
f 37/52/39 71/107/39 34/53/39
f 44/61/100 41/108/101 45/62/102
f 47/64/50 65/109/103 48/65/51
f 50/67/52 72/110/52 44/68/52
f 55/73/104 51/69/105 53/71/106
f 59/78/62 73/111/62 51/112/62
f 67/113/107 61/81/108 63/83/109
f 74/114/110 18/27/66 24/85/68
f 23/33/23 19/115/23 17/116/23
f 37/52/39 75/117/39 28/118/39
f 50/67/52 76/119/52 47/120/52
f 59/78/62 77/121/62 61/122/62
f 11/19/111 16/24/112 9/17/113
f 74/123/114 9/17/115 16/24/116
f 14/22/117 20/29/118 12/20/119
f 69/124/120 12/20/121 20/29/122
f 17/25/123 19/125/124 14/26/125
f 12/30/126 69/126/127 21/31/128
f 23/33/23 11/87/23 10/34/23
f 12/36/129 22/103/130 24/37/131
f 25/39/132 36/127/133 26/40/134
f 28/42/135 70/105/136 29/43/137
f 31/45/138 71/128/139 32/46/140
f 26/48/141 36/129/142 34/49/143
f 36/51/39 25/130/39 37/52/39
f 38/54/144 49/131/145 39/55/146
f 41/57/147 72/132/148 42/58/149
f 39/60/150 49/133/151 44/61/152
f 46/63/153 66/134/154 47/64/155
f 49/66/52 38/135/52 50/67/52
f 51/69/156 73/136/157 52/70/158
f 54/72/159 60/137/160 55/73/161
f 52/75/162 73/138/163 57/76/164
f 59/78/62 51/112/62 60/79/62
f 61/81/165 77/139/166 62/82/167
f 18/27/168 14/26/169 13/84/170
f 23/33/23 17/116/23 15/86/23
f 64/88/171 75/140/172 25/39/173
f 32/46/174 30/141/175 29/89/176
f 37/52/39 28/118/39 30/90/39
f 65/92/177 76/142/178 38/54/179
f 42/58/180 66/143/181 46/93/182
f 50/67/52 47/120/52 66/94/52
f 62/82/183 77/121/184 54/72/185
f 57/76/186 68/97/187 67/96/188
f 59/78/62 61/122/62 68/97/62
f 16/99/189 15/144/190 17/25/191
f 21/31/192 10/145/193 9/100/194
f 69/101/23 20/146/23 23/33/23
f 9/102/195 74/147/196 24/37/197
f 28/42/198 75/148/199 64/104/200
f 34/49/201 71/149/202 31/106/203
f 37/52/39 32/91/39 71/107/39
f 44/61/204 72/150/205 41/108/206
f 47/64/207 76/151/208 65/109/209
f 50/67/52 42/95/52 72/110/52
f 55/73/210 60/152/211 51/69/212
f 59/78/62 57/98/62 73/111/62
f 67/113/213 68/153/214 61/81/215
f 74/114/216 16/99/217 18/27/218
f 23/33/23 20/146/23 19/115/23
f 37/52/39 25/130/39 75/117/39
f 50/67/52 38/135/52 76/119/52
f 59/78/62 54/80/62 77/121/62
usemtl Material
s off
f 78/154/62 79/155/62 80/156/62 81/157/62
f 82/158/219 85/159/219 84/160/219 83/161/219
f 78/162/2 82/158/2 83/163/2 79/164/2
f 79/165/1 83/166/1 84/167/1 80/168/1
f 80/169/4 84/160/4 85/170/4 81/171/4
f 82/172/3 78/173/3 81/174/3 85/175/3
