# Blender v2.78 (sub 0) OBJ File: 'Carrot.blend'
# www.blender.org
mtllib Carrot.mtl
o Cube.005_Cube.021
v -0.103502 1.233108 -0.009639
v -0.064806 1.082757 -0.048334
v -0.029501 1.071813 0.029498
v -0.068196 1.222163 0.068193
v -0.018869 1.077285 0.018866
v 0.048331 1.082757 0.064804
v -0.057564 1.227636 0.057561
v -0.157628 1.306743 0.067115
v -0.116198 1.295143 0.116195
v 0.009635 1.233108 0.103499
v -0.067118 1.306743 0.157625
v -0.222367 1.326558 0.159007
v -0.188522 1.318139 0.188518
v -0.120023 1.283542 0.120020
v -0.159010 1.326558 0.222363
v -0.186355 1.309719 0.186351
v -0.242221 1.292882 0.242217
v 0.009635 1.233108 -0.098338
v 0.048331 1.082757 -0.059643
v -0.029501 1.071813 -0.024337
v -0.068196 1.222163 -0.063033
v -0.018870 1.077285 -0.013706
v -0.064807 1.082757 0.053494
v -0.057565 1.227636 -0.052401
v -0.067118 1.306743 -0.152465
v -0.116198 1.295143 -0.111035
v -0.103502 1.233108 0.014799
v -0.157628 1.306743 -0.061955
v -0.159010 1.326558 -0.217204
v -0.188521 1.318139 -0.183358
v -0.120023 1.283542 -0.114860
v -0.222367 1.326558 -0.153847
v -0.186354 1.309719 -0.181191
v -0.242220 1.292882 -0.237057
v 0.098335 1.233108 0.014799
v 0.059640 1.082757 0.053494
v 0.024334 1.071813 -0.024338
v 0.063030 1.222163 -0.063033
v 0.013703 1.077285 -0.013706
v -0.053497 1.082757 -0.059644
v 0.052398 1.227636 -0.052401
v 0.152462 1.306743 -0.061955
v 0.111032 1.295143 -0.111035
v -0.014802 1.233108 -0.098339
v 0.061952 1.306743 -0.152465
v 0.217201 1.326558 -0.153847
v 0.183355 1.318139 -0.183358
v 0.114857 1.283542 -0.114860
v 0.153844 1.326558 -0.217203
v 0.181188 1.309719 -0.181191
v 0.237054 1.292882 -0.237057
v -0.014802 1.233108 0.103498
v -0.053497 1.082757 0.064803
v 0.024334 1.071813 0.029498
v 0.063030 1.222163 0.068193
v 0.013703 1.077285 0.018866
v 0.059640 1.082757 -0.048334
v 0.052398 1.227636 0.057561
v 0.061952 1.306743 0.157625
v 0.111032 1.295143 0.116195
v 0.098336 1.233108 -0.009639
v 0.152462 1.306743 0.067115
v 0.153843 1.326558 0.222364
v 0.183355 1.318139 0.188518
v 0.114857 1.283542 0.120020
v 0.217200 1.326558 0.159007
v 0.181188 1.309719 0.186351
v 0.237053 1.292882 0.242217
v 0.345760 0.319987 0.003777
v 0.243845 0.319987 -0.242267
v -0.002199 0.955237 -0.449968
v 0.303732 0.590362 -0.302154
v -0.323045 0.955237 -0.317069
v 0.430453 0.590362 0.003777
v -0.455944 0.955236 0.003777
v 0.303732 0.590361 0.309708
v -0.323045 0.955237 0.324624
v -0.002199 0.590361 0.436429
v -0.002199 0.955237 0.457523
v -0.002199 0.590362 -0.428875
v 0.318647 0.955237 0.324624
v -0.308130 0.590361 0.309708
v 0.451546 0.955237 0.003777
v -0.434851 0.590361 0.003777
v 0.318647 0.955237 -0.317069
v -0.308130 0.590362 -0.302154
v 0.243845 0.319987 0.249822
v -0.002199 0.319986 0.351736
v -0.002199 0.319987 -0.344182
v -0.248243 0.319987 0.249822
v -0.350158 0.319987 0.003777
v -0.248243 0.319987 -0.242267
v 0.232395 0.096862 0.003777
v 0.163684 0.096862 -0.162106
v 0.163684 0.096862 0.169660
v -0.002199 0.096862 0.238371
v -0.002199 0.096862 -0.230816
v -0.168082 0.096862 0.169660
v -0.236793 0.096862 0.003777
v -0.168082 0.096862 -0.162106
v 0.090568 -0.036138 0.003777
v 0.063397 -0.036138 -0.061819
v 0.063397 -0.036138 0.069373
v -0.002199 -0.036138 0.096544
v -0.002199 -0.036138 -0.088990
v -0.067795 -0.036138 0.069373
v -0.094965 -0.036138 0.003777
v -0.067795 -0.036138 -0.061819
v -0.002199 1.111862 -0.315469
v -0.227940 1.111862 -0.221964
v -0.321445 1.111861 0.003777
v -0.227940 1.111862 0.229519
v -0.002199 1.111862 0.323024
v 0.223542 1.111862 0.229519
v 0.317047 1.111862 0.003777
v 0.223542 1.111862 -0.221964
vt 0.7961 0.9025
vt 0.8025 0.8967
vt 0.7999 0.8888
vt 0.7891 0.8927
vt 0.8246 0.9162
vt 0.8232 0.9100
vt 0.8167 0.9110
vt 0.8170 0.9173
vt 0.7868 0.9240
vt 0.7909 0.9102
vt 0.7790 0.9006
vt 0.7685 0.9206
vt 0.8101 0.9104
vt 0.8115 0.9038
vt 0.8068 0.9014
vt 0.8032 0.9078
vt 0.8006 0.9149
vt 0.8267 0.9256
vt 0.8181 0.9271
vt 0.8296 0.9073
vt 0.8261 0.9010
vt 0.8213 0.9036
vt 0.8323 0.9138
vt 0.8352 0.9235
vt 0.8165 0.9045
vt 0.8408 0.9099
vt 0.8365 0.9025
vt 0.8091 0.9170
vt 0.8089 0.9274
vt 0.8565 0.9205
vt 0.8519 0.9034
vt 0.8444 0.9214
vt 0.8110 0.8922
vt 0.8106 0.8899
vt 0.7987 0.9265
vt 0.8305 0.8964
vt 0.8443 0.8943
vt 0.7851 0.9368
vt 0.7972 0.9376
vt 0.8341 0.8882
vt 0.7891 0.9417
vt 0.7902 0.9405
vt 0.7902 0.9388
vt 0.7891 0.9376
vt 0.7875 0.9376
vt 0.7864 0.9388
vt 0.7864 0.9405
vt 0.7875 0.9417
vt 0.8201 0.8929
vt 0.8184 0.8942
vt 0.8164 0.8949
vt 0.8144 0.8948
vt 0.8125 0.8939
vt 0.8219 0.8885
vt 0.8214 0.8909
vt 0.8063 0.9375
vt 0.8696 0.8691
vt 0.8434 0.8408
vt 0.8279 0.9343
vt 0.8366 0.9317
vt 0.8185 0.9364
vt 0.7715 0.9368
vt 0.8449 0.9295
vt 0.8083 0.9376
vt 0.8535 0.9297
vt 0.8063 0.8408
vt 0.7800 0.8691
vt 0.7800 0.9092
vt 0.8434 0.9375
vt 0.8696 0.9092
vt 0.4984 0.3912
vt 0.5381 0.4013
vt 0.5191 0.4207
vt 0.4890 0.4108
vt 0.4587 0.3798
vt 0.4587 0.4076
vt 0.4780 0.3511
vt 0.5124 0.3605
vt 0.5457 0.3731
vt 0.5258 0.3694
vt 0.5132 0.3982
vt 0.4978 0.3951
vt 0.5112 0.3655
vt 0.4941 0.4386
vt 0.4803 0.4295
vt 0.4891 0.4134
vt 0.5002 0.4176
vt 0.4875 0.4349
vt 0.4806 0.4313
vt 0.4837 0.3890
vt 0.4773 0.4105
vt 0.4660 0.4339
vt 0.4739 0.4495
vt 0.4725 0.4303
vt 0.4741 0.4449
vt 0.4984 0.3912
vt 0.5381 0.4013
vt 0.5191 0.4207
vt 0.4890 0.4108
vt 0.4587 0.3798
vt 0.4587 0.4076
vt 0.4780 0.3511
vt 0.5124 0.3605
vt 0.5457 0.3731
vt 0.5258 0.3694
vt 0.5132 0.3982
vt 0.4978 0.3951
vt 0.5112 0.3655
vt 0.4941 0.4386
vt 0.4803 0.4295
vt 0.4891 0.4134
vt 0.5002 0.4176
vt 0.4875 0.4349
vt 0.4806 0.4313
vt 0.4837 0.3890
vt 0.4773 0.4105
vt 0.4660 0.4339
vt 0.4739 0.4495
vt 0.4725 0.4303
vt 0.4741 0.4449
vt 0.4984 0.3912
vt 0.5381 0.4013
vt 0.5191 0.4207
vt 0.4890 0.4108
vt 0.4587 0.3798
vt 0.4587 0.4076
vt 0.4780 0.3511
vt 0.5124 0.3605
vt 0.5457 0.3731
vt 0.5258 0.3694
vt 0.5132 0.3982
vt 0.4978 0.3951
vt 0.5112 0.3655
vt 0.4941 0.4386
vt 0.4803 0.4295
vt 0.4891 0.4134
vt 0.5002 0.4176
vt 0.4875 0.4349
vt 0.4806 0.4313
vt 0.4837 0.3890
vt 0.4773 0.4105
vt 0.4660 0.4339
vt 0.4739 0.4495
vt 0.4725 0.4303
vt 0.4741 0.4449
vt 0.4984 0.3912
vt 0.5381 0.4013
vt 0.5191 0.4207
vt 0.4890 0.4108
vt 0.4587 0.3798
vt 0.4587 0.4076
vt 0.4780 0.3511
vt 0.5124 0.3605
vt 0.5457 0.3731
vt 0.5258 0.3694
vt 0.5132 0.3982
vt 0.4978 0.3951
vt 0.5112 0.3655
vt 0.4941 0.4386
vt 0.4803 0.4295
vt 0.4891 0.4134
vt 0.5002 0.4176
vt 0.4875 0.4349
vt 0.4806 0.4313
vt 0.4837 0.3890
vt 0.4773 0.4105
vt 0.4660 0.4339
vt 0.4739 0.4495
vt 0.4725 0.4303
vt 0.4741 0.4449
vn 0.8363 -0.4249 0.3464
vn -0.8875 -0.2780 -0.3676
vn 0.9226 -0.0533 0.3821
vn -0.3464 -0.4249 0.8363
vn 0.3676 -0.2780 0.8875
vn -0.9226 -0.0533 -0.3821
vn -0.3464 -0.4249 -0.8363
vn -0.3676 -0.2780 -0.8875
vn -0.3821 -0.0533 -0.9226
vn -0.8363 -0.4249 0.3464
vn 0.3676 -0.2780 -0.8875
vn -0.9226 -0.0533 0.3821
vn 0.3464 -0.4249 0.8363
vn -0.3676 -0.2780 0.8875
vn 0.9226 -0.0533 -0.3821
vn 0.6581 -0.7018 0.2726
vn 0.8875 -0.2780 0.3676
vn 0.3821 -0.0533 0.9226
vn 0.3464 -0.4249 -0.8363
vn -0.3821 -0.0533 0.9226
vn -0.8875 -0.2780 0.3676
vn -0.8363 -0.4249 -0.3464
vn 0.8875 -0.2780 -0.3676
vn 0.3821 -0.0533 -0.9226
vn 0.2998 0.6215 0.7238
vn 0.8363 -0.4249 -0.3464
vn 0.0000 -1.0000 0.0000
vn -0.2726 -0.7018 -0.6581
vn -0.6581 -0.7018 -0.2726
vn -0.2726 -0.7018 0.6581
vn 0.2726 -0.7018 0.6581
vn 0.6581 -0.7018 -0.2726
vn 0.2726 -0.7018 -0.6581
vn -0.6581 -0.7018 0.2726
vn 0.0000 1.0000 -0.0000
vn -0.2998 0.6215 -0.7238
vn -0.7238 0.6215 -0.2998
vn 0.7238 0.6215 0.2998
vn 0.2998 0.6215 -0.7238
vn -0.7238 0.6215 0.2998
vn 0.7238 0.6215 -0.2998
vn -0.2998 0.6215 0.7238
vn 0.5695 0.7586 -0.3165
vn 0.3165 0.7586 -0.5695
vn 0.5129 0.3354 -0.7902
vn 0.7902 0.3354 -0.5129
vn -0.3543 -0.3176 0.8796
vn 0.2763 0.9609 -0.0199
vn 0.0763 -0.9085 0.4109
vn -0.1909 -0.7120 0.6757
vn -0.6757 -0.7120 0.1909
vn -0.3574 0.9305 0.0802
vn -0.0802 0.9305 0.3574
vn 0.0199 0.9609 -0.2763
vn -0.4109 -0.9085 -0.0763
vn -0.1234 -0.9093 -0.3974
vn 0.3974 -0.9093 0.1234
vn 0.3165 0.7586 0.5695
vn 0.5695 0.7586 0.3165
vn 0.7902 0.3354 0.5129
vn 0.5129 0.3354 0.7902
vn -0.8796 -0.3176 -0.3543
vn 0.0199 0.9609 0.2763
vn -0.4109 -0.9085 0.0763
vn -0.6757 -0.7120 -0.1909
vn -0.1909 -0.7120 -0.6757
vn -0.0802 0.9305 -0.3574
vn -0.3574 0.9305 -0.0802
vn 0.2763 0.9609 0.0199
vn 0.0763 -0.9085 -0.4109
vn 0.3974 -0.9093 -0.1234
vn -0.1234 -0.9093 0.3974
vn -0.5695 0.7586 0.3165
vn -0.3165 0.7586 0.5695
vn -0.5129 0.3354 0.7902
vn -0.7902 0.3354 0.5129
vn 0.3543 -0.3176 -0.8796
vn -0.2763 0.9609 0.0199
vn -0.0763 -0.9085 -0.4109
vn 0.1909 -0.7120 -0.6757
vn 0.6757 -0.7120 -0.1909
vn 0.3574 0.9305 -0.0802
vn 0.0802 0.9305 -0.3574
vn -0.0199 0.9609 0.2763
vn 0.4109 -0.9085 0.0763
vn 0.1234 -0.9093 0.3974
vn -0.3974 -0.9093 -0.1234
vn -0.3165 0.7586 -0.5695
vn -0.5695 0.7586 -0.3165
vn -0.7902 0.3354 -0.5129
vn -0.5129 0.3354 -0.7902
vn 0.8796 -0.3176 0.3543
vn -0.0199 0.9609 -0.2763
vn 0.4109 -0.9085 -0.0763
vn 0.6757 -0.7120 0.1909
vn 0.1909 -0.7120 0.6757
vn 0.0802 0.9305 0.3574
vn 0.3574 0.9305 0.0802
vn -0.2763 0.9609 -0.0199
vn -0.0763 -0.9085 0.4109
vn -0.3974 -0.9093 0.1234
vn 0.1234 -0.9093 -0.3974
usemtl Material.003
s off
f 87/1/1 95/2/1 93/3/1 69/4/1
f 86/5/2 92/6/2 91/7/2 84/8/2
f 81/9/3 76/10/3 74/11/3 83/12/3
f 90/13/4 98/14/4 96/15/4 88/16/4
f 78/17/5 88/16/5 87/1/5 76/10/5
f 73/18/6 86/5/6 84/8/6 75/19/6
f 89/20/7 97/21/7 100/22/7 92/6/7
f 80/23/8 89/20/8 92/6/8 86/5/8
f 71/24/9 80/23/9 86/5/9 73/18/9
f 91/7/10 99/25/10 98/14/10 90/13/10
f 72/26/11 70/27/11 89/20/11 80/23/11
f 75/19/12 84/8/12 82/28/12 77/29/12
f 88/16/13 96/15/13 95/2/13 87/1/13
f 82/28/14 90/13/14 88/16/14 78/17/14
f 83/30/15 74/31/15 72/26/15 85/32/15
f 95/2/16 103/33/16 101/34/16 93/3/16
f 76/10/17 87/1/17 69/4/17 74/11/17
f 79/35/18 78/17/18 76/10/18 81/9/18
f 70/27/19 94/36/19 97/21/19 89/20/19
f 77/29/20 82/28/20 78/17/20 79/35/20
f 84/8/21 91/7/21 90/13/21 82/28/21
f 92/6/22 100/22/22 99/25/22 91/7/22
f 74/31/23 69/37/23 70/27/23 72/26/23
f 85/32/24 72/26/24 80/23/24 71/24/24
f 81/9/25 114/38/25 113/39/25 79/35/25
f 69/37/26 93/40/26 94/36/26 70/27/26
f 105/41/27 102/42/27 101/43/27 103/44/27 104/45/27 106/46/27 107/47/27 108/48/27
f 97/21/28 105/49/28 108/50/28 100/22/28
f 100/22/29 108/50/29 107/51/29 99/25/29
f 98/14/30 106/52/30 104/53/30 96/15/30
f 96/15/31 104/53/31 103/33/31 95/2/31
f 93/40/32 101/54/32 102/55/32 94/36/32
f 94/36/33 102/55/33 105/49/33 97/21/33
f 99/25/34 107/51/34 106/52/34 98/14/34
f 112/56/35 115/57/35 116/58/35
f 73/18/36 110/59/36 109/60/36 71/24/36
f 75/19/37 111/61/37 110/59/37 73/18/37
f 83/12/38 115/62/38 114/38/38 81/9/38
f 71/24/39 109/60/39 116/63/39 85/32/39
f 77/29/40 112/64/40 111/61/40 75/19/40
f 85/32/41 116/63/41 115/65/41 83/30/41
f 79/35/42 113/39/42 112/64/42 77/29/42
f 116/58/35 109/66/35 112/56/35
f 110/67/35 111/68/35 112/56/35
f 112/56/35 113/69/35 114/70/35
f 114/70/35 115/57/35 112/56/35
f 109/66/35 110/67/35 112/56/35
usemtl Material.003_14221-cartoon_leaf.png
f 7/71/43 1/72/43 8/73/43 9/74/43
f 10/75/44 7/71/44 9/74/44 11/76/44
f 10/75/45 6/77/45 5/78/45 7/71/45
f 7/71/46 5/78/46 2/79/46 1/72/46
f 6/80/47 10/81/47 4/82/47 3/83/47
f 9/74/48 8/73/48 12/84/48 13/85/48
f 14/86/49 11/87/49 15/88/49 16/89/49
f 4/82/50 10/81/50 11/87/50 14/86/50
f 1/90/51 4/82/51 14/86/51 8/91/51
f 15/92/52 13/85/52 17/93/52
f 13/85/53 12/84/53 17/93/53
f 11/76/54 9/74/54 13/85/54 15/92/54
f 8/91/55 14/86/55 16/89/55 12/94/55
f 12/94/56 16/89/56 17/95/56
f 16/89/57 15/88/57 17/95/57
f 24/96/58 18/97/58 25/98/58 26/99/58
f 27/100/59 24/96/59 26/99/59 28/101/59
f 27/100/60 23/102/60 22/103/60 24/96/60
f 24/96/61 22/103/61 19/104/61 18/97/61
f 23/105/62 27/106/62 21/107/62 20/108/62
f 26/99/63 25/98/63 29/109/63 30/110/63
f 31/111/64 28/112/64 32/113/64 33/114/64
f 21/107/65 27/106/65 28/112/65 31/111/65
f 18/115/66 21/107/66 31/111/66 25/116/66
f 32/117/67 30/110/67 34/118/67
f 30/110/68 29/109/68 34/118/68
f 28/101/69 26/99/69 30/110/69 32/117/69
f 25/116/70 31/111/70 33/114/70 29/119/70
f 29/119/71 33/114/71 34/120/71
f 33/114/72 32/113/72 34/120/72
f 41/121/73 35/122/73 42/123/73 43/124/73
f 44/125/74 41/121/74 43/124/74 45/126/74
f 44/125/75 40/127/75 39/128/75 41/121/75
f 41/121/76 39/128/76 36/129/76 35/122/76
f 40/130/77 44/131/77 38/132/77 37/133/77
f 43/124/78 42/123/78 46/134/78 47/135/78
f 48/136/79 45/137/79 49/138/79 50/139/79
f 38/132/80 44/131/80 45/137/80 48/136/80
f 35/140/81 38/132/81 48/136/81 42/141/81
f 49/142/82 47/135/82 51/143/82
f 47/135/83 46/134/83 51/143/83
f 45/126/84 43/124/84 47/135/84 49/142/84
f 42/141/85 48/136/85 50/139/85 46/144/85
f 46/144/86 50/139/86 51/145/86
f 50/139/87 49/138/87 51/145/87
f 58/146/88 52/147/88 59/148/88 60/149/88
f 61/150/89 58/146/89 60/149/89 62/151/89
f 61/150/90 57/152/90 56/153/90 58/146/90
f 58/146/91 56/153/91 53/154/91 52/147/91
f 57/155/92 61/156/92 55/157/92 54/158/92
f 60/149/93 59/148/93 63/159/93 64/160/93
f 65/161/94 62/162/94 66/163/94 67/164/94
f 55/157/95 61/156/95 62/162/95 65/161/95
f 52/165/96 55/157/96 65/161/96 59/166/96
f 66/167/97 64/160/97 68/168/97
f 64/160/98 63/159/98 68/168/98
f 62/151/99 60/149/99 64/160/99 66/167/99
f 59/166/100 65/161/100 67/164/100 63/169/100
f 63/169/101 67/164/101 68/170/101
f 67/164/102 66/163/102 68/170/102
